<mxfile host="app.diagrams.net" modified="2023-06-27T13:41:21.256Z" agent="Mozilla/5.0 (Windows NT 10.0; Win64; x64) AppleWebKit/537.36 (KHTML, like Gecko) Chrome/114.0.0.0 Safari/537.36" etag="OIUVCmfoX2XlZOKPc7jL" version="21.5.1" type="github">
  <diagram name="第 1 页" id="4Kv045NYYK1Y-ZEvXPQU">
    <mxGraphModel dx="930" dy="967" grid="1" gridSize="10" guides="1" tooltips="1" connect="1" arrows="1" fold="1" page="1" pageScale="1" pageWidth="827" pageHeight="1169" math="0" shadow="0">
      <root>
        <mxCell id="0" />
        <mxCell id="1" parent="0" />
        <mxCell id="RJQkKuCtMkeUzwrfzkMf-39" value="&lt;div style=&quot;text-align: center;&quot;&gt;&lt;div style=&quot;border-color: var(--border-color);&quot;&gt;&lt;b style=&quot;border-color: var(--border-color); font-family: &amp;quot;Times New Roman&amp;quot;;&quot;&gt;&lt;font color=&quot;#0000ff&quot; style=&quot;border-color: var(--border-color); font-size: 24px;&quot;&gt;&lt;br style=&quot;border-color: var(--border-color);&quot;&gt;结&lt;/font&gt;&lt;/b&gt;&lt;/div&gt;&lt;div style=&quot;border-color: var(--border-color);&quot;&gt;&lt;font color=&quot;#0000ff&quot; face=&quot;Times New Roman&quot;&gt;&lt;span style=&quot;font-size: 24px;&quot;&gt;&lt;b&gt;果&lt;/b&gt;&lt;/span&gt;&lt;/font&gt;&lt;/div&gt;&lt;div style=&quot;border-color: var(--border-color);&quot;&gt;&lt;font color=&quot;#0000ff&quot;&gt;&lt;br style=&quot;border-color: var(--border-color);&quot;&gt;&lt;/font&gt;&lt;br style=&quot;border-color: var(--border-color);&quot;&gt;&lt;/div&gt;&lt;/div&gt;" style="text;whiteSpace=wrap;html=1;strokeColor=#00a4db;dashed=1;fillColor=default;" vertex="1" parent="1">
          <mxGeometry x="60" y="337" width="720" height="133" as="geometry" />
        </mxCell>
        <mxCell id="RJQkKuCtMkeUzwrfzkMf-35" value="&lt;div style=&quot;text-align: center;&quot;&gt;&lt;b style=&quot;border-color: var(--border-color); font-family: &amp;quot;Times New Roman&amp;quot;;&quot;&gt;&lt;font color=&quot;#ea6b66&quot; style=&quot;font-size: 24px;&quot;&gt;&lt;br&gt;方&lt;/font&gt;&lt;/b&gt;&lt;/div&gt;&lt;div style=&quot;text-align: center;&quot;&gt;&lt;b style=&quot;border-color: var(--border-color); font-family: &amp;quot;Times New Roman&amp;quot;;&quot;&gt;&lt;font color=&quot;#ea6b66&quot; style=&quot;font-size: 24px;&quot;&gt;法&lt;/font&gt;&lt;/b&gt;&lt;/div&gt;&lt;div style=&quot;text-align: center;&quot;&gt;&lt;br&gt;&lt;/div&gt;" style="text;whiteSpace=wrap;html=1;strokeColor=#e4430f;dashed=1;" vertex="1" parent="1">
          <mxGeometry x="60" y="190" width="720" height="125" as="geometry" />
        </mxCell>
        <mxCell id="RJQkKuCtMkeUzwrfzkMf-72" style="edgeStyle=orthogonalEdgeStyle;rounded=0;orthogonalLoop=1;jettySize=auto;html=1;exitX=0.5;exitY=1;exitDx=0;exitDy=0;entryX=0.5;entryY=0;entryDx=0;entryDy=0;" edge="1" parent="1" source="RJQkKuCtMkeUzwrfzkMf-32" target="RJQkKuCtMkeUzwrfzkMf-45">
          <mxGeometry relative="1" as="geometry" />
        </mxCell>
        <mxCell id="RJQkKuCtMkeUzwrfzkMf-32" value="&lt;div style=&quot;text-align: center;&quot;&gt;&lt;b&gt;&lt;font style=&quot;font-size: 14px;&quot;&gt;典型冰川季节性流速分析&lt;/font&gt;&lt;/b&gt;&lt;/div&gt;" style="text;whiteSpace=wrap;html=1;strokeColor=#29b6f2;dashed=1;dashPattern=8 8;" vertex="1" parent="1">
          <mxGeometry x="460" y="352" width="300" height="98" as="geometry" />
        </mxCell>
        <mxCell id="RJQkKuCtMkeUzwrfzkMf-34" value="&lt;div style=&quot;&quot;&gt;&lt;div style=&quot;&quot;&gt;&lt;b style=&quot;background-color: initial; border-color: var(--border-color); font-family: &amp;quot;Times New Roman&amp;quot;;&quot;&gt;&lt;font color=&quot;#60a917&quot; style=&quot;font-size: 24px;&quot;&gt;&lt;br&gt;数&lt;/font&gt;&lt;/b&gt;&lt;/div&gt;&lt;b style=&quot;border-color: var(--border-color); font-family: &amp;quot;Times New Roman&amp;quot;;&quot;&gt;&lt;div style=&quot;&quot;&gt;&lt;b style=&quot;background-color: initial; border-color: var(--border-color);&quot;&gt;&lt;font color=&quot;#60a917&quot; style=&quot;font-size: 24px;&quot;&gt;据&lt;/font&gt;&lt;/b&gt;&lt;/div&gt;&lt;/b&gt;&lt;/div&gt;" style="text;whiteSpace=wrap;html=1;strokeColor=#6d8764;dashed=1;align=left;" vertex="1" parent="1">
          <mxGeometry x="60" y="60" width="720" height="115" as="geometry" />
        </mxCell>
        <mxCell id="RJQkKuCtMkeUzwrfzkMf-71" style="edgeStyle=orthogonalEdgeStyle;rounded=0;orthogonalLoop=1;jettySize=auto;html=1;exitX=0.5;exitY=1;exitDx=0;exitDy=0;" edge="1" parent="1" source="RJQkKuCtMkeUzwrfzkMf-30" target="RJQkKuCtMkeUzwrfzkMf-50">
          <mxGeometry relative="1" as="geometry">
            <Array as="points">
              <mxPoint x="249" y="450" />
            </Array>
          </mxGeometry>
        </mxCell>
        <mxCell id="RJQkKuCtMkeUzwrfzkMf-30" value="&lt;div style=&quot;text-align: center;&quot;&gt;&lt;b style=&quot;border-color: var(--border-color); font-family: &amp;quot;Times New Roman&amp;quot;; font-size: 14px;&quot;&gt;全南极物质平衡估算&lt;/b&gt;&lt;br&gt;&lt;/div&gt;" style="text;whiteSpace=wrap;html=1;strokeColor=#29b6f2;dashed=1;dashPattern=8 8;" vertex="1" parent="1">
          <mxGeometry x="100" y="352" width="303" height="98" as="geometry" />
        </mxCell>
        <mxCell id="RJQkKuCtMkeUzwrfzkMf-10" style="edgeStyle=orthogonalEdgeStyle;rounded=0;orthogonalLoop=1;jettySize=auto;html=1;exitX=0.5;exitY=1;exitDx=0;exitDy=0;entryX=0.5;entryY=0;entryDx=0;entryDy=0;" edge="1" parent="1" source="RJQkKuCtMkeUzwrfzkMf-1" target="RJQkKuCtMkeUzwrfzkMf-6">
          <mxGeometry relative="1" as="geometry">
            <Array as="points">
              <mxPoint x="145" y="150" />
            </Array>
          </mxGeometry>
        </mxCell>
        <mxCell id="RJQkKuCtMkeUzwrfzkMf-15" style="edgeStyle=orthogonalEdgeStyle;rounded=0;orthogonalLoop=1;jettySize=auto;html=1;exitX=1;exitY=0.5;exitDx=0;exitDy=0;" edge="1" parent="1" source="RJQkKuCtMkeUzwrfzkMf-1" target="RJQkKuCtMkeUzwrfzkMf-5">
          <mxGeometry relative="1" as="geometry">
            <Array as="points">
              <mxPoint x="190" y="190" />
              <mxPoint x="285" y="190" />
            </Array>
          </mxGeometry>
        </mxCell>
        <mxCell id="RJQkKuCtMkeUzwrfzkMf-16" style="edgeStyle=orthogonalEdgeStyle;rounded=0;orthogonalLoop=1;jettySize=auto;html=1;exitX=1;exitY=0.5;exitDx=0;exitDy=0;" edge="1" parent="1" source="RJQkKuCtMkeUzwrfzkMf-1" target="RJQkKuCtMkeUzwrfzkMf-8">
          <mxGeometry relative="1" as="geometry">
            <Array as="points">
              <mxPoint x="190" y="190" />
              <mxPoint x="425" y="190" />
            </Array>
          </mxGeometry>
        </mxCell>
        <mxCell id="RJQkKuCtMkeUzwrfzkMf-1" value="&lt;font face=&quot;Times New Roman&quot;&gt;&lt;span style=&quot;font-size: 14px;&quot;&gt;&lt;b&gt;南极流速&lt;br&gt;数据产品&lt;/b&gt;&lt;/span&gt;&lt;/font&gt;" style="shape=parallelogram;perimeter=parallelogramPerimeter;whiteSpace=wrap;html=1;fixedSize=1;fillColor=#d5e8d4;strokeColor=#6d8764;" vertex="1" parent="1">
          <mxGeometry x="100" y="90" width="100" height="60" as="geometry" />
        </mxCell>
        <mxCell id="RJQkKuCtMkeUzwrfzkMf-13" style="edgeStyle=orthogonalEdgeStyle;rounded=0;orthogonalLoop=1;jettySize=auto;html=1;exitX=0.5;exitY=1;exitDx=0;exitDy=0;entryX=0.5;entryY=0;entryDx=0;entryDy=0;" edge="1" parent="1" source="RJQkKuCtMkeUzwrfzkMf-2" target="RJQkKuCtMkeUzwrfzkMf-9">
          <mxGeometry relative="1" as="geometry">
            <Array as="points">
              <mxPoint x="705" y="150" />
            </Array>
          </mxGeometry>
        </mxCell>
        <mxCell id="RJQkKuCtMkeUzwrfzkMf-2" value="&lt;font face=&quot;Times New Roman&quot;&gt;&lt;span style=&quot;font-size: 14px;&quot;&gt;&lt;b&gt;ALOS-2&lt;br&gt;遥感影像&lt;/b&gt;&lt;/span&gt;&lt;/font&gt;" style="shape=parallelogram;perimeter=parallelogramPerimeter;whiteSpace=wrap;html=1;fixedSize=1;fillColor=#d5e8d4;strokeColor=#6d8764;" vertex="1" parent="1">
          <mxGeometry x="650" y="90" width="100" height="60" as="geometry" />
        </mxCell>
        <mxCell id="RJQkKuCtMkeUzwrfzkMf-22" style="edgeStyle=orthogonalEdgeStyle;rounded=0;orthogonalLoop=1;jettySize=auto;html=1;exitX=0.5;exitY=1;exitDx=0;exitDy=0;" edge="1" parent="1" source="RJQkKuCtMkeUzwrfzkMf-3" target="RJQkKuCtMkeUzwrfzkMf-30">
          <mxGeometry relative="1" as="geometry">
            <Array as="points">
              <mxPoint x="335" y="150" />
            </Array>
          </mxGeometry>
        </mxCell>
        <mxCell id="RJQkKuCtMkeUzwrfzkMf-3" value="&lt;font face=&quot;Times New Roman&quot;&gt;&lt;span style=&quot;font-size: 14px;&quot;&gt;&lt;b&gt;冰厚度、通&lt;br&gt;量门、接地线、&lt;br&gt;流域边界&lt;/b&gt;&lt;/span&gt;&lt;/font&gt;" style="shape=parallelogram;perimeter=parallelogramPerimeter;whiteSpace=wrap;html=1;fixedSize=1;fillColor=#d5e8d4;strokeColor=#6d8764;" vertex="1" parent="1">
          <mxGeometry x="270" y="90" width="120" height="60" as="geometry" />
        </mxCell>
        <mxCell id="RJQkKuCtMkeUzwrfzkMf-17" style="edgeStyle=orthogonalEdgeStyle;rounded=0;orthogonalLoop=1;jettySize=auto;html=1;exitX=0.5;exitY=1;exitDx=0;exitDy=0;entryX=0.5;entryY=0;entryDx=0;entryDy=0;" edge="1" parent="1" source="RJQkKuCtMkeUzwrfzkMf-4" target="RJQkKuCtMkeUzwrfzkMf-7">
          <mxGeometry relative="1" as="geometry" />
        </mxCell>
        <mxCell id="RJQkKuCtMkeUzwrfzkMf-4" value="&lt;b style=&quot;border-color: var(--border-color); font-family: &amp;quot;Times New Roman&amp;quot;; font-size: 14px;&quot;&gt;区域气候模型&lt;br&gt;和&lt;/b&gt;&lt;font face=&quot;Times New Roman&quot;&gt;&lt;span style=&quot;font-size: 14px;&quot;&gt;&lt;b&gt;再分析数据&lt;br&gt;&lt;/b&gt;&lt;/span&gt;&lt;/font&gt;" style="shape=parallelogram;perimeter=parallelogramPerimeter;whiteSpace=wrap;html=1;fixedSize=1;fillColor=#d5e8d4;strokeColor=#6d8764;" vertex="1" parent="1">
          <mxGeometry x="460" y="90" width="120" height="60" as="geometry" />
        </mxCell>
        <mxCell id="RJQkKuCtMkeUzwrfzkMf-40" style="edgeStyle=orthogonalEdgeStyle;rounded=0;orthogonalLoop=1;jettySize=auto;html=1;exitX=0.5;exitY=0;exitDx=0;exitDy=0;entryX=0.75;entryY=1;entryDx=0;entryDy=0;" edge="1" parent="1" source="RJQkKuCtMkeUzwrfzkMf-5">
          <mxGeometry relative="1" as="geometry">
            <mxPoint x="285" y="102" as="sourcePoint" />
            <mxPoint x="600" y="352" as="targetPoint" />
            <Array as="points">
              <mxPoint x="285" y="300" />
              <mxPoint x="600" y="300" />
            </Array>
          </mxGeometry>
        </mxCell>
        <mxCell id="RJQkKuCtMkeUzwrfzkMf-5" value="&lt;font face=&quot;Times New Roman&quot; style=&quot;font-size: 14px;&quot;&gt;&lt;b&gt;季节性冰流&lt;br&gt;探测和分解&lt;/b&gt;&lt;/font&gt;" style="shape=document;whiteSpace=wrap;html=1;boundedLbl=1;size=0.16666666666666666;fillColor=#f8cecc;strokeColor=#b85450;" vertex="1" parent="1">
          <mxGeometry x="240" y="220" width="90" height="50" as="geometry" />
        </mxCell>
        <mxCell id="RJQkKuCtMkeUzwrfzkMf-23" style="edgeStyle=orthogonalEdgeStyle;rounded=0;orthogonalLoop=1;jettySize=auto;html=1;exitX=0.5;exitY=0;exitDx=0;exitDy=0;" edge="1" parent="1">
          <mxGeometry relative="1" as="geometry">
            <mxPoint x="145" y="231" as="sourcePoint" />
            <mxPoint x="145" y="351" as="targetPoint" />
            <Array as="points">
              <mxPoint x="145" y="321" />
              <mxPoint x="145" y="321" />
            </Array>
          </mxGeometry>
        </mxCell>
        <mxCell id="RJQkKuCtMkeUzwrfzkMf-6" value="&lt;font face=&quot;Times New Roman&quot;&gt;&lt;span style=&quot;font-size: 14px;&quot;&gt;&lt;b&gt;年度数据&lt;br&gt;填充&lt;/b&gt;&lt;/span&gt;&lt;/font&gt;" style="shape=document;whiteSpace=wrap;html=1;boundedLbl=1;size=0.16666666666666666;fillColor=#f8cecc;strokeColor=#b85450;" vertex="1" parent="1">
          <mxGeometry x="100" y="220" width="90" height="50" as="geometry" />
        </mxCell>
        <mxCell id="RJQkKuCtMkeUzwrfzkMf-28" style="edgeStyle=orthogonalEdgeStyle;rounded=0;orthogonalLoop=1;jettySize=auto;html=1;exitX=0.5;exitY=0;exitDx=0;exitDy=0;" edge="1" parent="1" source="RJQkKuCtMkeUzwrfzkMf-7" target="RJQkKuCtMkeUzwrfzkMf-30">
          <mxGeometry relative="1" as="geometry">
            <Array as="points">
              <mxPoint x="565" y="280" />
              <mxPoint x="245" y="280" />
            </Array>
          </mxGeometry>
        </mxCell>
        <mxCell id="RJQkKuCtMkeUzwrfzkMf-7" value="&lt;font face=&quot;Times New Roman&quot;&gt;&lt;span style=&quot;font-size: 14px;&quot;&gt;&lt;b&gt;表面物质平衡延拓&lt;/b&gt;&lt;/span&gt;&lt;/font&gt;" style="shape=document;whiteSpace=wrap;html=1;boundedLbl=1;size=0.16666666666666666;fillColor=#f8cecc;strokeColor=#b85450;" vertex="1" parent="1">
          <mxGeometry x="520" y="220" width="90" height="50" as="geometry" />
        </mxCell>
        <mxCell id="RJQkKuCtMkeUzwrfzkMf-36" style="edgeStyle=orthogonalEdgeStyle;rounded=0;orthogonalLoop=1;jettySize=auto;html=1;exitX=0.5;exitY=0;exitDx=0;exitDy=0;" edge="1" parent="1" source="RJQkKuCtMkeUzwrfzkMf-8" target="RJQkKuCtMkeUzwrfzkMf-32">
          <mxGeometry relative="1" as="geometry">
            <Array as="points">
              <mxPoint x="425" y="300" />
              <mxPoint x="600" y="300" />
            </Array>
          </mxGeometry>
        </mxCell>
        <mxCell id="RJQkKuCtMkeUzwrfzkMf-8" value="&lt;font face=&quot;Times New Roman&quot;&gt;&lt;span style=&quot;font-size: 14px;&quot;&gt;&lt;b&gt;月度流速&lt;br&gt;数据合成&lt;/b&gt;&lt;/span&gt;&lt;/font&gt;" style="shape=document;whiteSpace=wrap;html=1;boundedLbl=1;size=0.16666666666666666;fillColor=#f8cecc;strokeColor=#b85450;" vertex="1" parent="1">
          <mxGeometry x="380" y="220" width="90" height="50" as="geometry" />
        </mxCell>
        <mxCell id="RJQkKuCtMkeUzwrfzkMf-33" style="edgeStyle=orthogonalEdgeStyle;rounded=0;orthogonalLoop=1;jettySize=auto;html=1;exitX=0.5;exitY=0;exitDx=0;exitDy=0;entryX=0.823;entryY=0.091;entryDx=0;entryDy=0;entryPerimeter=0;" edge="1" parent="1">
          <mxGeometry relative="1" as="geometry">
            <mxPoint x="704" y="222" as="sourcePoint" />
            <mxPoint x="704.1300000000001" y="352.01" as="targetPoint" />
            <Array as="points">
              <mxPoint x="704" y="272" />
              <mxPoint x="704" y="272" />
            </Array>
          </mxGeometry>
        </mxCell>
        <mxCell id="RJQkKuCtMkeUzwrfzkMf-9" value="&lt;font face=&quot;Times New Roman&quot;&gt;&lt;span style=&quot;font-size: 14px;&quot;&gt;&lt;b&gt;SAR图像&lt;br&gt;流速反演&lt;br&gt;&lt;/b&gt;&lt;/span&gt;&lt;/font&gt;" style="shape=document;whiteSpace=wrap;html=1;boundedLbl=1;size=0.16666666666666666;fillColor=#f8cecc;strokeColor=#b85450;" vertex="1" parent="1">
          <mxGeometry x="660" y="220" width="90" height="50" as="geometry" />
        </mxCell>
        <mxCell id="RJQkKuCtMkeUzwrfzkMf-18" value="&lt;font face=&quot;Times New Roman&quot; style=&quot;font-size: 14px;&quot;&gt;&lt;b&gt;物质平衡&lt;br&gt;动态变化&lt;/b&gt;&lt;/font&gt;" style="ellipse;whiteSpace=wrap;html=1;fillColor=#dae8fc;strokeColor=#6c8ebf;" vertex="1" parent="1">
          <mxGeometry x="110" y="382" width="100" height="60" as="geometry" />
        </mxCell>
        <mxCell id="RJQkKuCtMkeUzwrfzkMf-19" value="&lt;font face=&quot;Times New Roman&quot;&gt;&lt;span style=&quot;font-size: 14px;&quot;&gt;&lt;b&gt;冰流速和&lt;br&gt;冰排放动态变化&lt;/b&gt;&lt;/span&gt;&lt;/font&gt;" style="ellipse;whiteSpace=wrap;html=1;fillColor=#dae8fc;strokeColor=#6c8ebf;" vertex="1" parent="1">
          <mxGeometry x="280" y="382" width="110" height="60" as="geometry" />
        </mxCell>
        <mxCell id="RJQkKuCtMkeUzwrfzkMf-20" value="&lt;font face=&quot;Times New Roman&quot;&gt;&lt;span style=&quot;font-size: 14px;&quot;&gt;&lt;b&gt;季节性流速&lt;br&gt;分解结果&lt;/b&gt;&lt;/span&gt;&lt;/font&gt;" style="ellipse;whiteSpace=wrap;html=1;fillColor=#ffe6cc;strokeColor=#d79b00;" vertex="1" parent="1">
          <mxGeometry x="470" y="382" width="100" height="60" as="geometry" />
        </mxCell>
        <mxCell id="RJQkKuCtMkeUzwrfzkMf-21" value="&lt;font face=&quot;Times New Roman&quot;&gt;&lt;span style=&quot;font-size: 14px;&quot;&gt;&lt;b&gt;月度流速&lt;br&gt;合成结果&lt;/b&gt;&lt;/span&gt;&lt;/font&gt;" style="ellipse;whiteSpace=wrap;html=1;fillColor=#ffe6cc;strokeColor=#d79b00;" vertex="1" parent="1">
          <mxGeometry x="650" y="382" width="100" height="60" as="geometry" />
        </mxCell>
        <mxCell id="RJQkKuCtMkeUzwrfzkMf-42" value="&lt;div style=&quot;text-align: center;&quot;&gt;&lt;div style=&quot;border-color: var(--border-color);&quot;&gt;&lt;div style=&quot;border-color: var(--border-color);&quot;&gt;&lt;div style=&quot;border-color: var(--border-color);&quot;&gt;&lt;br&gt;&lt;/div&gt;&lt;/div&gt;&lt;/div&gt;&lt;/div&gt;" style="text;whiteSpace=wrap;html=1;strokeColor=#ff00f7;dashed=1;" vertex="1" parent="1">
          <mxGeometry x="60" y="490" width="720" height="160" as="geometry" />
        </mxCell>
        <mxCell id="RJQkKuCtMkeUzwrfzkMf-52" value="&lt;font face=&quot;Times New Roman&quot; style=&quot;font-size: 14px;&quot;&gt;&lt;b&gt;重力结果&lt;/b&gt;&lt;/font&gt;" style="shape=step;perimeter=stepPerimeter;whiteSpace=wrap;html=1;fixedSize=1;size=10;fillColor=#e1d5e7;strokeColor=#9673a6;" vertex="1" parent="1">
          <mxGeometry x="100" y="518" width="80" height="43" as="geometry" />
        </mxCell>
        <mxCell id="RJQkKuCtMkeUzwrfzkMf-53" value="" style="group" vertex="1" connectable="0" parent="1">
          <mxGeometry x="201.5" y="500" width="100" height="70" as="geometry" />
        </mxCell>
        <mxCell id="RJQkKuCtMkeUzwrfzkMf-49" value="" style="verticalLabelPosition=bottom;verticalAlign=top;html=1;shape=hexagon;perimeter=hexagonPerimeter2;arcSize=6;size=0.2;fillColor=#e1d5e7;strokeColor=#9673a6;" vertex="1" parent="RJQkKuCtMkeUzwrfzkMf-53">
          <mxGeometry y="2.5" width="100" height="60" as="geometry" />
        </mxCell>
        <mxCell id="RJQkKuCtMkeUzwrfzkMf-50" value="&lt;div style=&quot;text-align: center;&quot;&gt;&lt;span style=&quot;background-color: initial; font-size: 14px;&quot;&gt;&lt;font face=&quot;Times New Roman&quot;&gt;&lt;b&gt;重力、测高结果与本文结果对比&lt;/b&gt;&lt;/font&gt;&lt;/span&gt;&lt;/div&gt;" style="text;whiteSpace=wrap;html=1;" vertex="1" parent="RJQkKuCtMkeUzwrfzkMf-53">
          <mxGeometry x="9" width="80" height="70" as="geometry" />
        </mxCell>
        <mxCell id="RJQkKuCtMkeUzwrfzkMf-55" value="" style="shape=step;perimeter=stepPerimeter;whiteSpace=wrap;html=1;fixedSize=1;size=7;rotation=-180;fillColor=#e1d5e7;strokeColor=#9673a6;" vertex="1" parent="1">
          <mxGeometry x="323" y="516.5" width="80" height="43" as="geometry" />
        </mxCell>
        <mxCell id="RJQkKuCtMkeUzwrfzkMf-56" value="&lt;b style=&quot;border-color: var(--border-color); color: rgb(0, 0, 0); font-family: &amp;quot;Times New Roman&amp;quot;; font-size: 14px; font-style: normal; font-variant-ligatures: normal; font-variant-caps: normal; letter-spacing: normal; orphans: 2; text-align: center; text-indent: 0px; text-transform: none; widows: 2; word-spacing: 0px; -webkit-text-stroke-width: 0px; text-decoration-thickness: initial; text-decoration-style: initial; text-decoration-color: initial;&quot;&gt;测高结果&lt;/b&gt;" style="text;whiteSpace=wrap;html=1;" vertex="1" parent="1">
          <mxGeometry x="332" y="524" width="90" height="40" as="geometry" />
        </mxCell>
        <mxCell id="RJQkKuCtMkeUzwrfzkMf-58" value="" style="group" vertex="1" connectable="0" parent="1">
          <mxGeometry x="560" y="507" width="100" height="61" as="geometry" />
        </mxCell>
        <mxCell id="RJQkKuCtMkeUzwrfzkMf-45" value="" style="verticalLabelPosition=bottom;verticalAlign=top;html=1;shape=hexagon;perimeter=hexagonPerimeter2;arcSize=6;size=0.2;fillColor=#e1d5e7;strokeColor=#9673a6;" vertex="1" parent="RJQkKuCtMkeUzwrfzkMf-58">
          <mxGeometry width="100" height="61" as="geometry" />
        </mxCell>
        <mxCell id="RJQkKuCtMkeUzwrfzkMf-46" value="&lt;b style=&quot;border-color: var(--border-color); color: rgb(0, 0, 0); font-style: normal; font-variant-ligatures: normal; font-variant-caps: normal; letter-spacing: normal; orphans: 2; text-align: center; text-indent: 0px; text-transform: none; widows: 2; word-spacing: 0px; -webkit-text-stroke-width: 0px; text-decoration-thickness: initial; text-decoration-style: initial; text-decoration-color: initial; font-family: &amp;quot;Times New Roman&amp;quot;; font-size: 14px;&quot;&gt;季节性模式&lt;br&gt;的影响因素&lt;/b&gt;" style="text;whiteSpace=wrap;html=1;" vertex="1" parent="RJQkKuCtMkeUzwrfzkMf-58">
          <mxGeometry x="12" y="8" width="80" height="40" as="geometry" />
        </mxCell>
        <mxCell id="RJQkKuCtMkeUzwrfzkMf-60" value="&lt;font face=&quot;Times New Roman&quot; style=&quot;font-size: 14px;&quot;&gt;&lt;b&gt;表面强迫&lt;/b&gt;&lt;/font&gt;" style="shape=step;perimeter=stepPerimeter;whiteSpace=wrap;html=1;fixedSize=1;size=10;fillColor=#e1d5e7;strokeColor=#9673a6;" vertex="1" parent="1">
          <mxGeometry x="460" y="516.25" width="80" height="43" as="geometry" />
        </mxCell>
        <mxCell id="RJQkKuCtMkeUzwrfzkMf-61" value="" style="shape=step;perimeter=stepPerimeter;whiteSpace=wrap;html=1;fixedSize=1;size=7;rotation=-180;fillColor=#e1d5e7;strokeColor=#9673a6;" vertex="1" parent="1">
          <mxGeometry x="683" y="514.75" width="80" height="43" as="geometry" />
        </mxCell>
        <mxCell id="RJQkKuCtMkeUzwrfzkMf-62" value="&lt;b style=&quot;border-color: var(--border-color); color: rgb(0, 0, 0); font-family: &amp;quot;Times New Roman&amp;quot;; font-size: 14px; font-style: normal; font-variant-ligatures: normal; font-variant-caps: normal; letter-spacing: normal; orphans: 2; text-align: center; text-indent: 0px; text-transform: none; widows: 2; word-spacing: 0px; -webkit-text-stroke-width: 0px; text-decoration-thickness: initial; text-decoration-style: initial; text-decoration-color: initial;&quot;&gt;底部强迫&lt;/b&gt;" style="text;whiteSpace=wrap;html=1;" vertex="1" parent="1">
          <mxGeometry x="692" y="522" width="90" height="40" as="geometry" />
        </mxCell>
        <mxCell id="RJQkKuCtMkeUzwrfzkMf-63" value="&lt;font face=&quot;Times New Roman&quot; style=&quot;font-size: 14px;&quot;&gt;&lt;b&gt;季节性对物质&lt;br&gt;平衡估算的影响&lt;/b&gt;&lt;/font&gt;" style="strokeWidth=2;html=1;shape=mxgraph.flowchart.decision;whiteSpace=wrap;fillColor=#e1d5e7;strokeColor=#9673a6;" vertex="1" parent="1">
          <mxGeometry x="350" y="564" width="160" height="80" as="geometry" />
        </mxCell>
        <mxCell id="RJQkKuCtMkeUzwrfzkMf-66" value="&lt;div style=&quot;border-color: var(--border-color); color: rgb(0, 0, 0); font-family: Helvetica; font-size: 12px; font-style: normal; font-variant-ligatures: normal; font-variant-caps: normal; font-weight: 400; letter-spacing: normal; orphans: 2; text-align: center; text-indent: 0px; text-transform: none; widows: 2; word-spacing: 0px; -webkit-text-stroke-width: 0px; background-color: rgb(251, 251, 251); text-decoration-thickness: initial; text-decoration-style: initial; text-decoration-color: initial;&quot;&gt;&lt;b style=&quot;border-color: var(--border-color); font-family: &amp;quot;Times New Roman&amp;quot;;&quot;&gt;&lt;font color=&quot;#ff0080&quot; style=&quot;border-color: var(--border-color); font-size: 24px;&quot;&gt;&lt;b style=&quot;border-color: var(--border-color); background-color: initial; color: rgb(0, 0, 0); font-size: 12px;&quot;&gt;&lt;font color=&quot;#ff0080&quot; style=&quot;border-color: var(--border-color); font-size: 24px;&quot;&gt;讨&lt;/font&gt;&lt;/b&gt;&lt;br style=&quot;border-color: var(--border-color);&quot;&gt;&lt;/font&gt;&lt;/b&gt;&lt;/div&gt;&lt;div style=&quot;border-color: var(--border-color); color: rgb(0, 0, 0); font-family: Helvetica; font-size: 12px; font-style: normal; font-variant-ligatures: normal; font-variant-caps: normal; font-weight: 400; letter-spacing: normal; orphans: 2; text-align: center; text-indent: 0px; text-transform: none; widows: 2; word-spacing: 0px; -webkit-text-stroke-width: 0px; background-color: rgb(251, 251, 251); text-decoration-thickness: initial; text-decoration-style: initial; text-decoration-color: initial;&quot;&gt;&lt;b style=&quot;border-color: var(--border-color); font-family: &amp;quot;Times New Roman&amp;quot;;&quot;&gt;&lt;font color=&quot;#ff0080&quot; style=&quot;border-color: var(--border-color); font-size: 24px;&quot;&gt;论&lt;/font&gt;&lt;/b&gt;&lt;/div&gt;" style="text;whiteSpace=wrap;html=1;" vertex="1" parent="1">
          <mxGeometry x="60" y="530" width="60" height="80" as="geometry" />
        </mxCell>
        <mxCell id="RJQkKuCtMkeUzwrfzkMf-68" style="edgeStyle=orthogonalEdgeStyle;rounded=0;orthogonalLoop=1;jettySize=auto;html=1;exitX=0.5;exitY=1;exitDx=0;exitDy=0;entryX=0;entryY=0.5;entryDx=0;entryDy=0;entryPerimeter=0;" edge="1" parent="1" target="RJQkKuCtMkeUzwrfzkMf-63">
          <mxGeometry relative="1" as="geometry">
            <mxPoint x="249" y="565" as="sourcePoint" />
            <mxPoint x="350" y="596" as="targetPoint" />
            <Array as="points">
              <mxPoint x="249" y="566" />
              <mxPoint x="250" y="566" />
              <mxPoint x="250" y="604" />
            </Array>
          </mxGeometry>
        </mxCell>
        <mxCell id="RJQkKuCtMkeUzwrfzkMf-69" style="edgeStyle=orthogonalEdgeStyle;rounded=0;orthogonalLoop=1;jettySize=auto;html=1;exitX=0.5;exitY=1;exitDx=0;exitDy=0;entryX=1;entryY=0.5;entryDx=0;entryDy=0;entryPerimeter=0;" edge="1" parent="1" source="RJQkKuCtMkeUzwrfzkMf-45" target="RJQkKuCtMkeUzwrfzkMf-63">
          <mxGeometry relative="1" as="geometry" />
        </mxCell>
      </root>
    </mxGraphModel>
  </diagram>
</mxfile>
